<?xml version="1.0" standalone="no"?>
<!DOCTYPE svg PUBLIC "-//W3C//DTD SVG 20010904//EN"
 "http://www.w3.org/TR/2001/REC-SVG-20010904/DTD/svg10.dtd">
<svg version="1.0" xmlns="http://www.w3.org/2000/svg"
 width="500.000000pt" height="500.000000pt" viewBox="0 0 500.000000 500.000000"
 preserveAspectRatio="xMidYMid meet">

<g transform="translate(0.000000,500.000000) scale(0.100000,-0.100000)"
fill="#000000" stroke="none">
<path d="M3490 2806 c-46 -17 -80 -68 -80 -118 0 -62 45 -101 134 -118 86 -16
116 -41 116 -98 0 -47 -31 -80 -83 -89 -67 -10 -127 35 -127 97 0 14 -6 20
-24 20 -22 0 -23 -3 -16 -37 13 -73 43 -102 118 -116 46 -9 116 10 142 38 46
49 43 145 -5 184 -14 10 -58 26 -99 35 -40 9 -80 25 -89 34 -58 67 1 152 97
139 47 -7 72 -32 82 -83 4 -24 12 -34 25 -34 39 0 12 104 -34 135 -33 21 -114
28 -157 11z"/>
<path d="M1030 2580 l0 -230 25 0 25 0 0 110 0 110 85 0 c69 0 85 3 85 15 0
12 -16 15 -85 15 l-85 0 0 85 0 85 100 0 c93 0 100 1 100 20 0 19 -7 20 -125
20 l-125 0 0 -230z"/>
<path d="M1340 2615 l0 -195 28 -30 c31 -36 95 -54 150 -44 52 9 70 21 92 57
18 29 20 51 20 220 0 178 -1 187 -19 187 -19 0 -20 -10 -23 -190 -3 -182 -4
-190 -26 -212 -18 -18 -34 -23 -78 -23 -49 0 -59 4 -80 28 -23 28 -24 32 -24
213 0 177 -1 184 -20 184 -19 0 -20 -7 -20 -195z"/>
<path d="M1720 2580 c0 -223 1 -230 20 -230 19 0 20 7 20 95 l0 95 53 0 52 0
36 -93 c29 -72 41 -93 58 -95 11 -2 21 0 21 4 0 5 -16 48 -36 96 l-36 87 36
34 c37 35 42 53 36 127 -5 82 -50 110 -172 110 l-88 0 0 -230z m195 165 c19
-18 25 -35 25 -70 0 -35 -6 -52 -25 -70 -21 -22 -33 -25 -90 -25 l-65 0 0 95
0 95 65 0 c57 0 69 -3 90 -25z"/>
<path d="M2060 2580 c0 -222 1 -230 20 -230 19 0 20 8 22 190 l3 190 105 -190
c88 -158 109 -189 128 -190 l22 0 0 230 c0 222 -1 230 -20 230 -19 0 -20 -8
-22 -185 l-3 -185 -103 185 c-90 160 -107 185 -128 185 l-24 0 0 -230z"/>
<path d="M2450 2580 l0 -230 25 0 25 0 0 230 0 230 -25 0 -25 0 0 -230z"/>
<path d="M2710 2580 c0 -227 0 -230 21 -230 21 0 21 3 17 190 -1 104 0 186 4
182 3 -4 52 -89 108 -189 88 -158 105 -183 126 -183 l24 0 0 230 c0 222 -1
230 -20 230 -19 0 -20 -8 -22 -190 l-3 -190 -105 190 c-88 158 -109 189 -127
190 l-23 0 0 -230z"/>
<path d="M3100 2580 l0 -230 125 0 c118 0 125 1 125 20 0 19 -7 20 -105 20
l-105 0 0 90 0 90 90 0 c73 0 90 3 90 15 0 12 -17 15 -90 15 l-90 0 0 85 0 85
105 0 c98 0 105 1 105 20 0 19 -7 20 -125 20 l-125 0 0 -230z"/>
<path d="M3750 2790 c0 -18 7 -20 55 -20 l55 0 0 -210 0 -210 25 0 25 0 0 210
0 210 55 0 c48 0 55 2 55 20 0 19 -7 20 -135 20 -128 0 -135 -1 -135 -20z"/>
</g>
</svg>
