<?xml version="1.0" standalone="no"?>
<!DOCTYPE svg PUBLIC "-//W3C//DTD SVG 20010904//EN"
 "http://www.w3.org/TR/2001/REC-SVG-20010904/DTD/svg10.dtd">
<svg version="1.0" xmlns="http://www.w3.org/2000/svg"
 width="692.000000pt" height="206.000000pt" viewBox="0 0 692.000000 206.000000"
 preserveAspectRatio="xMidYMid meet">
<metadata>
Created by potrace 1.16, written by Peter Selinger 2001-2019
</metadata>
<g transform="translate(0.000000,206.000000) scale(0.100000,-0.100000)"
fill="#000000" stroke="none">
<path d="M5141 1139 c-50 -10 -105 -44 -122 -76 -17 -31 -14 -105 6 -145 8
-18 47 -57 85 -87 64 -50 70 -57 70 -91 0 -22 -7 -43 -16 -51 -24 -20 -107
-15 -146 9 l-34 21 -27 -49 -28 -49 38 -18 c27 -12 65 -17 133 -18 83 0 100 3
139 25 72 41 100 126 67 204 -8 19 -45 58 -90 95 -56 46 -76 69 -76 86 0 54
64 74 97 30 l18 -25 48 23 47 22 -19 32 c-36 58 -101 79 -190 62z"/>
<path d="M3889 1138 c0 -2 -24 -122 -53 -268 l-52 -265 36 -7 c91 -18 83 -30
115 174 16 100 30 178 32 172 2 -5 36 -85 77 -179 l73 -170 55 -3 55 -3 33
173 c18 95 40 214 50 263 10 50 16 93 12 96 -4 4 -30 10 -59 14 -61 8 -53 22
-83 -165 -11 -74 -23 -150 -26 -169 -5 -33 -7 -30 -44 60 -21 52 -55 135 -77
184 l-39 90 -52 3 c-29 2 -52 2 -53 0z"/>
<path d="M4492 873 c-29 -148 -52 -271 -52 -275 0 -5 81 -8 180 -8 l180 0 0
45 0 45 -109 0 -109 0 8 38 c4 20 11 54 14 75 l7 37 83 0 c83 0 84 0 90 28 4
15 9 35 12 45 5 15 -3 17 -81 17 -85 0 -87 0 -82 23 3 12 9 39 12 60 l7 37
104 0 103 0 10 38 c19 65 27 62 -157 62 l-168 0 -52 -267z"/>
<path d="M5460 1090 l0 -50 65 0 c63 0 65 -1 60 -22 -3 -13 -23 -114 -44 -225
l-38 -203 63 0 c51 0 64 3 68 18 3 9 21 103 41 207 20 105 38 198 41 208 4 14
17 17 68 17 l64 0 11 44 c6 25 11 47 11 50 0 3 -92 6 -205 6 l-205 0 0 -50z"/>
</g>
</svg>
